<?xml version="1.0" encoding="UTF-8"?>
<svg version="1.1" xmlns="http://www.w3.org/2000/svg" width="1280" height="433">
<path d="M0 0 C3.81493998 3.39290877 7.4473264 6.9004514 11.05859375 10.51171875 C0.49859375 21.07171875 -10.06140625 31.63171875 -20.94140625 42.51171875 C-29.22345753 36.30018029 -29.22345753 36.30018029 -32.94140625 33.19921875 C-56.65238695 14.87893965 -87.02026647 8.53024713 -116.484375 11.98046875 C-145.96234628 16.19595038 -173.67213178 31.47966378 -191.73461914 55.33447266 C-210.98316114 81.71745213 -219.25553383 113.37327266 -214.75390625 145.81640625 C-212.37552619 160.68760711 -207.39822071 174.4726449 -199.94140625 187.51171875 C-199.39871094 188.48109375 -198.85601562 189.45046875 -198.296875 190.44921875 C-183.23873925 215.65602506 -158.1082022 233.36294683 -129.91088867 240.93676758 C-100.05557759 248.33182981 -67.44839685 244.52686555 -40.69506836 229.17895508 C-20.26839888 216.85580558 -6.95969069 199.12619082 0.05859375 176.51171875 C1.37859375 170.57171875 2.69859375 164.63171875 4.05859375 158.51171875 C-30.59140625 158.51171875 -65.24140625 158.51171875 -100.94140625 158.51171875 C-100.94140625 143.66171875 -100.94140625 128.81171875 -100.94140625 113.51171875 C-51.44140625 113.51171875 -1.94140625 113.51171875 49.05859375 113.51171875 C50.38334577 122.78498287 51.41851085 131.25919995 51.37109375 140.51171875 C51.3661792 141.67380859 51.36126465 142.83589844 51.35620117 144.03320312 C50.8027074 185.56510498 36.56354621 221.44986202 7.20214844 250.80517578 C-4.60657572 262.28762532 -17.86171873 270.94766363 -32.94140625 277.51171875 C-33.88935059 277.92478271 -33.88935059 277.92478271 -34.85644531 278.34619141 C-74.23325661 295.08789565 -121.84906736 295.26956223 -161.4777832 279.30322266 C-198.91089742 263.63898112 -228.67336184 237.24746273 -247.94140625 201.51171875 C-248.46347656 200.58488281 -248.98554688 199.65804687 -249.5234375 198.703125 C-268.45386001 163.48954223 -270.31775603 120.13882642 -259.74365234 82.1640625 C-251.89829586 56.22615841 -237.80498286 33.79919595 -218.94140625 14.51171875 C-218.22984375 13.73828125 -217.51828125 12.96484375 -216.78515625 12.16796875 C-205.47207082 0.15869344 -191.56325075 -9.03553703 -176.94140625 -16.48828125 C-176.27173828 -16.83729492 -175.60207031 -17.18630859 -174.91210938 -17.54589844 C-119.95135797 -45.96935663 -47.60848133 -40.27437265 0 0 Z " fill="#4185F4" transform="translate(266.94140625,36.48828125)"/>
<path d="M0 0 C4.546875 3.7890625 4.546875 3.7890625 5.796875 6.2890625 C6.126875 1.0090625 6.456875 -4.2709375 6.796875 -9.7109375 C21.646875 -9.7109375 36.496875 -9.7109375 51.796875 -9.7109375 C51.81949753 14.76838422 51.83789812 39.2476974 51.84868717 63.72702694 C51.85383112 75.09463311 51.86083738 86.4622323 51.87231445 97.82983398 C51.8823196 107.74432158 51.88874224 117.65880411 51.89096349 127.57329661 C51.89226074 132.81701285 51.89528362 138.06071462 51.90260506 143.30442619 C51.90945751 148.252942 51.91147344 153.20143755 51.90998268 158.14995766 C51.9102549 159.95371995 51.91220477 161.757483 51.91608047 163.56124115 C51.98320031 196.44780053 49.61377222 230.5118892 26.796875 256.2890625 C26.01570312 257.26746094 25.23453125 258.24585938 24.4296875 259.25390625 C10.67330412 275.76887381 -12.45838848 283.82612564 -33.203125 286.2890625 C-37.97796398 286.57366678 -42.73313215 286.62360599 -47.515625 286.6015625 C-48.79655029 286.59592285 -50.07747559 286.5902832 -51.3972168 286.58447266 C-60.36850155 286.46917078 -68.58625057 285.96605163 -77.203125 283.2890625 C-78.16532959 282.99104736 -78.16532959 282.99104736 -79.14697266 282.68701172 C-105.2451322 274.36576907 -126.25292468 255.76531358 -138.890625 231.6015625 C-140.33984375 228.71484375 -140.33984375 228.71484375 -141.203125 226.2890625 C-140.203125 223.2890625 -140.203125 223.2890625 -138.65370178 222.32087708 C-137.98688889 222.04330063 -137.32007599 221.76572418 -136.63305664 221.47973633 C-135.50167015 220.99957817 -135.50167015 220.99957817 -134.34742737 220.50971985 C-133.11777504 220.00797493 -133.11777504 220.00797493 -131.86328125 219.49609375 C-131.02598984 219.14520187 -130.18869843 218.79431 -129.32603455 218.43278503 C-127.55355282 217.69233765 -125.77886652 216.95714914 -124.00219727 216.22680664 C-121.2759426 215.10580497 -118.5565077 213.96946051 -115.83789062 212.83007812 C-114.11756467 212.11367694 -112.39687337 211.39815233 -110.67578125 210.68359375 C-109.85803726 210.34302444 -109.04029327 210.00245514 -108.19776917 209.65156555 C-102.43762423 207.2890625 -102.43762423 207.2890625 -100.203125 207.2890625 C-99.81382812 208.09988281 -99.42453125 208.91070312 -99.0234375 209.74609375 C-91.28383296 225.06480412 -80.65976439 235.3442012 -64.4921875 241.5625 C-50.40052482 246.0352803 -33.60120337 244.19765257 -20.40625 237.96875 C-8.18159636 231.18962389 -1.59886024 221.16530345 2.86328125 208.1875 C5.42008979 199.22014252 5.93424952 190.63024356 5.859375 181.3515625 C5.85260742 179.75344727 5.85260742 179.75344727 5.84570312 178.12304688 C5.83399287 175.51165959 5.81759224 172.90039126 5.796875 170.2890625 C5.29043457 170.81798096 4.78399414 171.34689941 4.26220703 171.8918457 C-10.34926768 186.87503085 -28.80605557 193.07829992 -49.453125 193.6015625 C-78.88450363 193.0873452 -103.25232834 180.06487956 -123.57421875 159.22265625 C-142.38950063 138.22670277 -151.35583592 110.53092992 -150.02734375 82.51953125 C-147.99655198 52.52903559 -134.72253199 26.16805385 -112.203125 6.2890625 C-79.91844379 -19.36349428 -34.06374409 -26.4537587 0 0 Z M-86.203125 43.2890625 C-92.32295184 50.99053378 -96.98230223 58.93916349 -100.203125 68.2890625 C-100.43644531 68.9490625 -100.66976562 69.6090625 -100.91015625 70.2890625 C-105.71201627 86.31829307 -103.13520336 104.34282525 -96.203125 119.2890625 C-87.70390444 134.13750316 -76.2046026 144.13273121 -59.76953125 149.38671875 C-45.90770093 152.89707625 -32.30395452 151.72851295 -19.6015625 144.78125 C-6.64265593 136.71886839 1.93655414 125.75566458 6.796875 111.2890625 C7.11527344 110.40347656 7.43367188 109.51789063 7.76171875 108.60546875 C13.18542032 90.98468716 10.53624406 70.81638459 2.296875 54.5390625 C-5.57942961 40.23529057 -17.64948138 31.32658572 -33.09375 26.359375 C-35.48468681 25.81051215 -37.75959902 25.48285939 -40.203125 25.2890625 C-40.95078125 25.20914063 -41.6984375 25.12921875 -42.46875 25.046875 C-58.51364372 24.14368562 -75.46657216 31.49184214 -86.203125 43.2890625 Z " fill="#4285F4" transform="translate(936.203125,133.7109375)"/>
<path d="M0 0 C29.89661872 -0.79873943 57.78982215 8.67431477 79.74121094 29.4050293 C98.2283766 47.4720321 109.60349024 72.54777886 110.390625 98.453125 C110.41005045 100.6040825 110.41360898 102.75523429 110.40234375 104.90625 C110.3967041 106.04368652 110.39106445 107.18112305 110.38525391 108.35302734 C110.0262828 133.36371744 101.07795819 157.60568356 84.08984375 176.15625 C83.31898438 177.00832031 82.548125 177.86039063 81.75390625 178.73828125 C63.15972957 198.32535086 36.55995651 209.40155591 9.7109375 210.33984375 C-19.84315422 210.96852045 -46.69548378 201.73320739 -68.46875 181.52734375 C-87.32917905 163.21009505 -99.418549 138.3633335 -100.2109375 111.859375 C-100.47679122 82.6757859 -94.10931103 55.27055774 -73.41650391 33.65576172 C-71.92695886 32.14268516 -70.4217071 30.64730525 -68.91015625 29.15625 C-68.09804688 28.33382812 -67.2859375 27.51140625 -66.44921875 26.6640625 C-48.98039763 9.89167278 -23.92948228 0.95622307 0 0 Z M-38.15234375 61.8125 C-43.17675888 68.20421499 -47.12852798 74.50949933 -49.91015625 82.15625 C-50.22855469 83.00832031 -50.54695313 83.86039063 -50.875 84.73828125 C-56.45575523 102.71499972 -53.49935235 122.46066923 -44.9296875 138.82421875 C-41.84774549 143.90912501 -38.15980841 148.02526178 -33.91015625 152.15625 C-33.28496094 152.80207031 -32.65976562 153.44789063 -32.015625 154.11328125 C-22.3484728 163.45480306 -8.00936217 168.11582187 5.27734375 168.46875 C22.38511519 167.80758009 36.98792433 160.10202977 48.73046875 147.921875 C62.00123343 132.366078 64.37559008 113.82081174 63.08984375 94.15625 C61.11793576 78.9549235 53.06313621 64.87797074 41.46484375 54.96875 C17.35559668 36.49973963 -18.07101402 38.0227714 -38.15234375 61.8125 Z " fill="#EA4334" transform="translate(434.91015625,116.84375)"/>
<path d="M0 0 C18.47458835 15.97802236 30.48882815 34.7931012 36.125 58.5625 C36.36992188 59.51640625 36.61484375 60.4703125 36.8671875 61.453125 C42.53907315 88.02552079 36.6558801 117.77911561 22.125 140.5625 C4.85477909 165.12459197 -18.14712887 180.15653368 -47.42578125 186.30859375 C-76.69724124 191.2040513 -106.29821507 184.76006156 -130.5703125 167.6640625 C-152.77334537 150.61157644 -166.72179422 127.05772537 -171.48022461 99.5769043 C-175.28452791 70.52821359 -169.2851613 42.17594566 -151.875 18.5625 C-149.02311596 15.06930643 -146.01380359 11.79779484 -142.875 8.5625 C-142.27558594 7.88960937 -141.67617188 7.21671875 -141.05859375 6.5234375 C-105.79215211 -31.71361154 -39.22065057 -31.13448559 0 0 Z M-111.171875 40.203125 C-120.72959268 52.77906931 -125.47294046 66.61236138 -125.3125 82.375 C-125.30492676 83.42453857 -125.29735352 84.47407715 -125.28955078 85.55541992 C-124.94305817 101.94047396 -119.07341814 116.45128833 -107.875 128.5625 C-96.42152717 139.39848125 -82.4566661 145.4531531 -66.625 145.875 C-49.99943523 145.22514079 -35.13991822 137.77946518 -23.75 125.76953125 C-10.64895117 110.34850503 -7.84933182 92.17201802 -8.875 72.5625 C-10.54617774 57.99718939 -17.45985548 45.68682024 -27.875 35.5625 C-28.81279297 34.59376953 -28.81279297 34.59376953 -29.76953125 33.60546875 C-39.37972154 24.31899013 -53.51281981 19.80796837 -66.6875 19.125 C-83.80178061 19.73921562 -99.95580354 27.30845781 -111.171875 40.203125 Z " fill="#FBBC04" transform="translate(732.875,139.4375)"/>
<path d="M0 0 C0.71800781 0.60328125 1.43601562 1.2065625 2.17578125 1.828125 C2.90410156 2.41078125 3.63242188 2.9934375 4.3828125 3.59375 C20.72714986 17.21880181 31.38728282 37.96276001 38.17578125 57.828125 C38.17578125 58.818125 38.17578125 59.808125 38.17578125 60.828125 C37.20906494 61.22378662 36.24234863 61.61944824 35.24633789 62.02709961 C11.28430756 71.83662363 -12.64919718 81.71304735 -36.56152344 91.64306641 C-44.76399392 95.04908594 -52.96804242 98.45130087 -61.17218018 101.853302 C-63.72735151 102.91295333 -66.28238793 103.97292936 -68.83740234 105.03295898 C-79.15957984 109.3145034 -89.48885269 113.57851626 -99.82421875 117.828125 C-93.46753225 130.6823664 -84.60853632 139.66494827 -71.08203125 144.88671875 C-55.4492653 149.85214137 -39.59252233 148.67543216 -24.69921875 141.828125 C-14.96742435 136.66118804 -6.66910373 129.22169015 -0.82421875 119.828125 C3.81837383 121.42901899 7.60856015 123.91598297 11.6640625 126.6171875 C12.71886055 127.31211807 12.71886055 127.31211807 13.79496765 128.02108765 C16.02887878 129.49423394 18.25860976 130.97357166 20.48828125 132.453125 C22.00688934 133.45614128 23.52576669 134.45875002 25.04492188 135.4609375 C28.75834337 137.91195763 32.46802978 140.3685369 36.17578125 142.828125 C29.21677595 161.12744906 8.60527987 174.83906413 -8.63671875 182.640625 C-34.60549273 193.85989728 -65.44976462 193.92875682 -91.6953125 183.61328125 C-117.40877473 172.82590345 -136.20549879 153.58637926 -147.51171875 128.0859375 C-158.20971546 101.53198139 -158.46259451 69.70032718 -148.07421875 42.953125 C-136.87989026 17.15871222 -118.89104924 -2.04007133 -92.515625 -12.85546875 C-61.40764544 -23.9490022 -26.22380694 -21.42620105 0 0 Z M-92.82421875 38.828125 C-102.90603983 49.20111781 -108.94367137 63.66921626 -109.01171875 78.140625 C-108.94984375 79.3575 -108.88796875 80.574375 -108.82421875 81.828125 C-97.43172203 77.66473804 -86.2337091 73.14007678 -75.07421875 68.390625 C-71.75196173 66.98151368 -68.4287938 65.57455903 -65.10546875 64.16796875 C-64.26409363 63.81154297 -63.42271851 63.45511719 -62.55584717 63.08789062 C-56.52199381 60.53546565 -50.4739943 58.01884623 -44.41796875 55.51953125 C-43.58448914 55.17497391 -42.75100952 54.83041656 -41.89227295 54.47541809 C-35.37389729 51.78089819 -35.37389729 51.78089819 -32.19055176 50.47610474 C-29.97809716 49.56910086 -27.76815219 48.65621913 -25.55859375 47.7421875 C-24.90209839 47.47519547 -24.24560303 47.20820343 -23.56921387 46.93312073 C-20.85209701 45.80381162 -18.92756599 44.93147224 -16.82421875 42.828125 C-22.62094634 32.43643041 -30.45995792 26.91290599 -41.8203125 23.546875 C-61.35579597 18.87258507 -78.31580611 25.87557431 -92.82421875 38.828125 Z " fill="#EA4234" transform="translate(1232.82421875,136.171875)"/>
<path d="M0 0 C14.85 0 29.7 0 45 0 C45 100.98 45 201.96 45 306 C30.15 306 15.3 306 0 306 C0 205.02 0 104.04 0 0 Z " fill="#34A853" transform="translate(1014,14)"/>
</svg>
